<svg width="222" height="219" viewBox="0 0 444 438" fill="none" xmlns="http://www.w3.org/2000/svg">
  <path d="M41.3 265.5C39.1 265.5 37.2 266.3 35.6 267.9C34 269.5 33.2 271.4 33.2 273.6V315.9C33.2 318.1 34 320 35.6 321.6C37.2 323.2 39.1 324 41.3 324H230.9C233.1 324 235 323.2 236.6 321.6C238.2 320 239 318.1 239 315.9V122.1C239 119.9 238.2 118 236.6 116.4C235 114.8 233.1 114 230.9 114H44.3C42.1 114 40.2 114.8 38.6 116.4C37 118 36.2 119.9 36.2 122.1V164.4C36.2 166.6 37 168.5 38.6 170.1C40.2 171.7 42.1 172.5 44.3 172.5H161V191.4H60.8C58.6 191.4 56.7 192.2 55.1 193.8C53.5 195.4 52.7 197.3 52.7 199.5V238.5C52.7 240.7 53.5 242.6 55.1 244.2C56.7 245.8 58.6 246.6 60.8 246.6H161V265.5H41.3Z" fill="#3A86FF"/>
  <path d="M436.8 114C438.6 114 440.1 114.7 441.3 116.1C442.7 117.3 443.4 118.8 443.4 120.6L443.1 122.7L374.1 314.1C373.1 316.9 371.5 319.3 369.3 321.3C367.1 323.1 364.2 324 360.6 324H290.7C287.1 324 284.2 323.1 282 321.3C279.8 319.3 278.3 317.2 277.5 315L207.9 122.7L207.6 120.6C207.6 118.8 208.2 117.3 209.4 116.1C210.8 114.7 212.4 114 214.2 114H277.5C281.1 114 284 115.1 286.2 117.3C288.6 119.3 290.2 121.5 291 123.9L325.5 238.8L360 123.9C360.8 121.3 362.3 119 364.5 117C366.7 115 369.7 114 373.5 114H436.8Z" fill="#3A86FF"/>
</svg>
